<svg width="300" height="300" viewBox="0 0 300 300" fill="none" xmlns="http://www.w3.org/2000/svg">
<path d="M150 0C169.698 -2.349e-07 189.204 3.87986 207.403 11.4181C225.601 18.9563 242.137 30.0052 256.066 43.934C269.995 57.8628 281.044 74.3986 288.582 92.5975C296.12 110.796 300 130.302 300 150C300 169.698 296.12 189.204 288.582 207.402C281.044 225.601 269.995 242.137 256.066 256.066C242.137 269.995 225.601 281.044 207.403 288.582C189.204 296.12 169.698 300 150 300L150 210C157.879 210 165.681 208.448 172.961 205.433C180.241 202.417 186.855 197.998 192.426 192.426C197.998 186.855 202.418 180.241 205.433 172.961C208.448 165.681 210 157.879 210 150C210 142.121 208.448 134.319 205.433 127.039C202.418 119.759 197.998 113.145 192.426 107.574C186.855 102.002 180.241 97.5825 172.961 94.5672C165.681 91.5519 157.879 90 150 90V0Z" fill="#FF9381"/>
<path d="M150 6.55671e-06C123.137 7.73094e-06 96.7662 7.21414 73.6438 20.8887C50.5214 34.5632 31.4955 54.1964 18.554 77.7369L97.4216 121.095C102.598 111.679 110.209 103.825 119.457 98.3555C128.706 92.8856 139.255 90 150 90L150 6.55671e-06Z" fill="#FFD269"/>
<path d="M150 300C123.936 300 98.3214 293.208 75.6812 280.295C53.041 267.381 34.1565 248.791 20.8887 226.356C7.62094 203.922 0.427907 178.417 0.0185053 152.356C-0.390896 126.295 5.99746 100.577 18.554 77.737L97.4216 121.095C92.399 130.231 89.8436 140.518 90.0074 150.942C90.1712 161.367 93.0484 171.569 98.3555 180.543C103.663 189.516 111.216 196.952 120.272 202.118C129.329 207.283 139.574 210 150 210V300Z" fill="#75DADC"/>
</svg>
