<svg width="300" height="300" viewBox="0 0 300 300" fill="none" xmlns="http://www.w3.org/2000/svg">
<path d="M279.904 225C266.74 247.801 247.807 266.735 225.007 279.9C202.207 293.065 176.344 299.997 150.016 300C123.688 300.003 97.8231 293.076 75.0204 279.916C52.2178 266.755 33.2806 247.825 20.1119 225.027L98.0448 180.011C103.312 189.13 110.887 196.702 120.008 201.966C129.129 207.23 139.475 210.001 150.006 210C160.537 209.999 170.883 207.226 180.003 201.96C189.123 196.694 196.696 189.12 201.962 180L279.904 225Z" fill="#A2DBE9"/>
<path d="M150 6.55671e-06C123.672 7.70753e-06 97.808 6.92955 75.0068 20.0923C52.2055 33.255 33.2703 52.1872 20.104 74.9864C6.93773 97.7856 0.00413113 123.649 -4.70591e-06 149.976C-0.00414055 176.304 6.92133 202.169 20.0805 224.973L98.0322 179.989C92.7685 170.868 89.9983 160.522 90 149.991C90.0016 139.459 92.7751 129.114 98.0416 119.995C103.308 110.875 110.882 103.302 120.003 98.0369C129.123 92.7718 139.469 90 150 90L150 6.55671e-06Z" fill="#D8DEEB"/>
<path d="M150 0C176.328 -3.13956e-07 202.192 6.92954 224.993 20.0923C247.794 33.255 266.73 52.1872 279.896 74.9864C293.062 97.7856 299.996 123.649 300 149.976C300.004 176.304 293.079 202.169 279.92 224.973L201.968 179.989C207.231 170.868 210.002 160.522 210 149.991C209.998 139.459 207.225 129.114 201.958 119.995C196.692 110.875 189.118 103.302 179.997 98.0369C170.877 92.7718 160.531 90 150 90V0Z" fill="#B1C5F2"/>
</svg>
