<svg width="24" height="9" viewBox="0 0 24 9" fill="none" xmlns="http://www.w3.org/2000/svg">
<path d="M13.8046 0.000194147H3.01048C2.55211 0.000194147 1.57031 0.421155 1.38234 0.970545H0.832871V0.523898C0.832871 0.235647 0.646343 0.00304812 0.416436 0.00304812C0.186529 0.00304812 0 0.235647 0 0.523898V8.47934C0 8.7676 0.186529 9.00019 0.416436 9.00019C0.646343 9.00019 0.832871 8.7676 0.832871 8.47934V8.00987H1.38089C1.56308 8.56211 2.55067 8.98592 3.01193 8.98592H13.8046C13.9839 8.98592 14.1024 8.98878 14.4625 8.61348C20.3894 8.43511 24 6.66136 24 4.49948C24 2.34188 20.4097 0.570989 14.5015 0.38548C14.1053 -0.0212106 13.9795 0.000194147 13.8046 0.000194147ZM23.2683 4.4053C21.4435 3.85876 19.6043 3.61903 15.171 3.61903V1.16176C20.4603 1.44716 23.1122 3.03254 23.2683 4.4053ZM0.527774 0.976252C0.600072 0.976252 0.657911 1.03333 0.657911 1.10468V3.64186C0.657911 3.71321 0.598626 3.77029 0.527774 3.77029C0.456923 3.77029 0.397638 3.71321 0.397638 3.64186V1.10468C0.397638 1.03333 0.455477 0.976252 0.527774 0.976252ZM13.5804 0.822138C13.7496 0.822138 13.887 0.957702 13.887 1.12466V3.49631C13.887 3.66327 13.7496 3.79883 13.5804 3.79883H3.09435C2.92517 3.79883 2.78781 3.66327 2.78781 3.49631V1.12466C2.78781 0.957702 2.92517 0.822138 3.09435 0.822138H13.5804Z" fill="#D9D9D9"/>
</svg>
