<svg width="31" height="35" viewBox="0 0 31 35" fill="none" xmlns="http://www.w3.org/2000/svg">
<path d="M30.8938 15.2146C30.4489 7.16882 23.8983 0.873047 15.9598 0.873047C12.0555 0.873047 8.36193 2.39223 5.55819 5.15267C2.88653 7.78121 1.29697 11.2671 1.04441 15.0168C0.875255 15.7328 0.977209 16.3734 1.01892 16.5689C1.06294 17.0023 1.64223 18.366 13.7725 30.536C13.5315 30.934 13.3901 31.398 13.3901 31.8974C13.3901 33.3388 14.5441 34.5094 15.9598 34.5094C17.3756 34.5094 18.5295 33.3388 18.5295 31.8974C18.5295 31.3792 18.3789 30.8963 18.1194 30.4889C30.2033 18.3613 30.7826 17.0023 30.8266 16.5689C30.8335 16.5312 30.8451 16.4747 30.8544 16.404L30.9077 16.4088C30.9494 16.1308 30.9795 15.6974 30.8938 15.2123V15.2146ZM9.38842 14.8707C9.39306 14.6847 9.49501 13.1631 11.6963 13.0359C11.7542 13.0336 11.8145 13.0289 11.8747 13.0289C11.9025 13.0289 11.9326 13.0289 11.9604 13.0289C12.0902 13.0289 12.2153 13.0336 12.3358 13.0406C12.3451 13.0406 12.3567 13.0406 12.3659 13.0406C14.4073 13.1631 15.1558 14.15 15.3388 14.4538V28.9932L13.1237 23.7409L9.38379 14.8707H9.38842ZM16.502 14.5528V14.5481C16.5322 14.4868 17.2296 13.0383 19.9291 13.0289C22.1373 13.0383 22.4571 14.3549 22.5011 14.7624L16.502 28.9909V14.5504V14.5528ZM2.16822 16.397L2.15663 16.3452C2.15663 16.3452 2.12188 16.1944 2.11261 15.9777H2.16358C2.16358 15.8529 2.16822 15.7304 2.17285 15.6056C2.27481 14.5104 3.06032 13.9192 4.50853 13.8462C4.54792 13.8462 4.58963 13.8438 4.62902 13.8415C4.68695 13.8415 4.74256 13.8367 4.80281 13.8367C7.43044 13.8438 8.17193 15.0097 8.23681 15.1204L14.2336 29.3418C5.79918 20.8721 2.46713 17.0847 2.1659 16.397H2.16822ZM15.9621 33.3341C15.1836 33.3341 14.551 32.6911 14.551 31.8997C14.551 31.5087 14.7063 31.1531 14.9588 30.894C15.0191 30.8328 15.084 30.7762 15.1535 30.7268C15.1558 30.7268 15.1604 30.7221 15.1627 30.7197C15.2346 30.6702 15.3087 30.6278 15.3898 30.5902C15.3898 30.5902 15.3921 30.5902 15.3944 30.5878C15.4362 30.569 15.4779 30.5525 15.5219 30.5383C15.654 30.4936 15.7907 30.4724 15.9343 30.4677H15.9784C15.9784 30.4677 15.9807 30.4677 15.983 30.4677C16.0664 30.4677 16.1475 30.4771 16.2286 30.4936C16.312 30.5101 16.3955 30.536 16.4766 30.569C16.4766 30.569 16.4766 30.569 16.4789 30.569C16.5623 30.6019 16.6411 30.6443 16.7152 30.6938C16.7175 30.6938 16.7199 30.6961 16.7245 30.6985C16.7986 30.748 16.8681 30.8045 16.933 30.8681C16.933 30.8681 16.9377 30.8728 16.94 30.8751L16.9608 30.8963C17.2134 31.1554 17.3687 31.5111 17.3687 31.9021C17.3687 32.6935 16.7361 33.3365 15.9575 33.3365L15.9621 33.3341ZM29.6935 16.3428L29.6796 16.3993C29.3737 17.0942 26.0394 20.8815 17.6166 29.3442L19.4958 24.8879L23.4257 15.5656L23.655 15.1416C23.6829 15.0874 24.3873 13.8485 27.096 13.8391C28.1966 13.8438 28.9636 14.1123 29.3737 14.6399C29.9183 15.3418 29.6935 16.3357 29.6935 16.3428Z" fill="white"/>
</svg>
