<svg width="50" height="42" viewBox="0 0 50 42" fill="none" xmlns="http://www.w3.org/2000/svg">
<g clip-path="url(#clip0_3292_23)">
<path d="M6.71721 41.9355C6.12727 41.9355 4.88225 41.8174 3.92677 40.9284C3.17396 40.2275 2.79032 39.2426 2.79032 37.9957V33.1706H2.60936C1.55977 33.1706 -0.000124027 32.4624 -0.000124027 30.5109V20.3037C-0.00736254 20.0713 0.0107337 18.8171 0.922786 17.8432C1.58511 17.1387 2.51526 16.7845 3.69152 16.7845H3.90867C4.09325 14.3978 5.03064 11.2512 7.6727 11.2512H9.58004C10.5934 8.7464 15.0705 0 28.1251 0C44.7882 0 49.714 16.1759 49.9963 19.3594C49.9963 19.3852 49.9963 19.4147 49.9963 19.4405V30.0166C49.9963 30.0646 49.9926 30.1162 49.9854 30.1642C49.761 31.577 48.5703 34.2515 45.6713 34.2515H31.7914V39.4713C31.7914 39.4713 31.7914 39.4971 31.7914 39.5082C31.7516 40.4784 31.0784 41.9244 29.3846 41.9244H6.98866C6.93075 41.9281 6.83665 41.9318 6.71721 41.9318V41.9355ZM3.69513 31.3262C4.19459 31.3262 4.59995 31.7393 4.59995 32.2484V37.9957C4.59995 38.7077 4.77729 39.2204 5.13922 39.5598C5.78706 40.1685 6.86198 40.0873 6.87284 40.0873C6.89818 40.0873 6.92713 40.0873 6.95246 40.0873H29.3846C29.7465 40.0873 29.9492 39.8697 29.9818 39.4455V33.333C29.9818 32.8239 30.3871 32.4107 30.8866 32.4107H45.6713C47.6039 32.4107 48.107 30.3413 48.1866 29.9392V19.4885C47.9043 16.6443 43.1522 1.84814 28.1215 1.84814C14.3538 1.84814 11.2015 12.0074 11.0748 12.439C10.959 12.83 10.6079 13.0993 10.2062 13.0993H7.6727C6.05489 13.0993 5.68572 16.5152 5.68211 17.7104C5.68211 18.2195 5.27675 18.6327 4.77729 18.6327H3.69152C3.03281 18.6327 2.54421 18.795 2.23658 19.1122C1.79865 19.5696 1.80588 20.2558 1.80588 20.2632V30.5146C1.80588 31.0385 2.07733 31.3151 2.6166 31.3299H3.69152L3.69513 31.3262Z" fill="black"/>
<path d="M30.8899 34.3991C30.3941 34.3991 29.9923 33.9934 29.9851 33.488C29.9851 33.44 29.9344 28.7477 29.9344 26.1913C29.9344 23.4209 31.6319 22.6869 32.5294 22.6869H39.5255C40.2095 22.6869 40.423 22.0302 40.4592 21.8974C40.4665 21.8642 40.4809 21.82 40.4954 21.7905C40.9225 20.6985 40.5244 17.9319 40.1444 16.2903C37.8208 13.6749 29.8041 13.0957 26.8581 13.092H10.2095C9.71004 13.092 9.30469 12.6789 9.30469 12.1698C9.30469 11.6607 9.71004 11.2476 10.2095 11.2476H26.8581C28.0524 11.2476 38.6026 11.3619 41.6789 15.2832C41.7585 15.3865 41.8201 15.5082 41.849 15.6374C41.9648 16.1169 42.9638 20.337 42.1929 22.4176C41.9793 23.1849 41.1795 24.5276 39.5218 24.5276H32.5258C32.4172 24.5387 31.7404 24.6641 31.7404 26.1876C31.7404 28.7367 31.7911 33.4179 31.7911 33.4658C31.7947 33.9749 31.3966 34.3918 30.8972 34.3991H30.8863H30.8899Z" fill="black"/>
<path d="M22.1531 33.0156H3.69485C3.1954 33.0156 2.79004 32.6025 2.79004 32.0934C2.79004 31.5843 3.1954 31.1712 3.69485 31.1712H22.1531C22.8805 31.1712 23.047 30.6621 23.0579 30.2379V20.2889C23.0579 18.7764 21.8056 18.6363 21.422 18.6289H4.78063C4.28117 18.6289 3.87582 18.2157 3.87582 17.7067C3.87582 17.1976 4.28117 16.7844 4.78063 16.7844H21.4292C22.8118 16.7844 24.8675 17.7177 24.8675 20.2889V30.2489C24.8675 31.3593 24.1436 33.0156 22.1531 33.0156Z" fill="black"/>
<path d="M14.9149 29.6956H0.904814C0.405357 29.6956 0 29.2825 0 28.7734C0 28.2643 0.405357 27.8512 0.904814 27.8512H14.9149C15.4976 27.8512 15.8017 27.6151 15.8198 27.1503V23.2401C15.8198 22.8158 15.675 22.6683 15.6279 22.6203C15.4253 22.4137 15.0561 22.3695 14.9294 22.3695H0.904814C0.405357 22.3695 0 21.9563 0 21.4472C0 20.9382 0.405357 20.525 0.904814 20.525H14.9149C15.0127 20.5176 16.0984 20.5139 16.8874 21.296C17.2277 21.6317 17.6294 22.244 17.6294 23.2401V27.1687C17.6294 28.1832 16.9055 29.6956 14.9149 29.6956Z" fill="black"/>
<path d="M35.5445 21.58C34.0461 21.58 32.8301 20.3405 32.8301 18.8133C32.8301 17.2861 34.0461 16.0466 35.5445 16.0466C37.0429 16.0466 38.259 17.2861 38.259 18.8133C38.259 20.3405 37.0429 21.58 35.5445 21.58ZM35.5445 17.8911C35.0451 17.8911 34.6397 18.3042 34.6397 18.8133C34.6397 19.3224 35.0451 19.7355 35.5445 19.7355C36.044 19.7355 36.4493 19.3224 36.4493 18.8133C36.4493 18.3042 36.044 17.8911 35.5445 17.8911Z" fill="black"/>
</g>
<defs>
<clipPath id="clip0_3292_23">
<rect width="50" height="41.9355" fill="white"/>
</clipPath>
</defs>
</svg>
