<svg width="29" height="27" viewBox="0 0 29 27" fill="none" xmlns="http://www.w3.org/2000/svg">
<path fill-rule="evenodd" clip-rule="evenodd" d="M24.0708 0H4.91849C2.20773 0 0 2.21705 0 4.91849V16.8235C0 19.5342 2.21705 21.742 4.91849 21.742H11.6814L12.8458 23.7541L13.9916 25.7382C14.1966 26.1015 14.7182 26.1015 14.9325 25.7382L16.0783 23.7541L17.2427 21.742H24.0801C26.7909 21.742 28.9986 19.5249 28.9986 16.8235V4.92781C28.9986 2.21705 26.7816 0 24.0708 0ZM15.836 8.71914C14.3548 8.71914 13.1532 9.90219 13.1532 11.3647C13.1532 12.8272 14.3548 14.0103 15.836 14.0103C17.3171 14.0103 18.5188 12.8272 18.5188 11.3647C18.5188 9.90219 17.3264 8.71914 15.836 8.71914ZM15.836 12.6316C15.128 12.6316 14.5504 12.0633 14.5504 11.3647C14.5504 10.666 15.128 10.0978 15.836 10.0978C16.5439 10.0978 17.1215 10.666 17.1215 11.3647C17.1215 12.0633 16.5532 12.6316 15.836 12.6316ZM5.81272 9.32465C6.23191 8.94272 6.7722 8.71915 7.34975 8.71915C8.69115 8.71915 9.76241 9.91151 9.76241 11.374C9.76241 12.8365 8.68184 14.0196 7.34975 14.0196C6.76288 14.0196 6.23191 13.7867 5.81272 13.4141V13.8892H4.32227V7.13554H5.81272V9.32465ZM5.82203 11.8864C6.02697 12.3614 6.50205 12.6875 7.05166 12.6875C7.79688 12.6875 8.39306 12.1006 8.39306 11.3647C8.39306 10.6288 7.79688 10.0419 7.05166 10.0419C6.50205 10.0419 6.02697 10.368 5.82203 10.843C5.74751 11.0014 5.71025 11.1784 5.71025 11.3647C5.71025 11.551 5.75683 11.728 5.82203 11.8864ZM23.1672 8.83096V9.25015C22.748 8.92411 22.2263 8.72849 21.6674 8.72849C20.2981 8.72849 19.1895 9.87427 19.1895 11.2809C19.1895 12.6875 20.2981 13.8333 21.6674 13.8333C22.2356 13.8333 22.7573 13.6377 23.1672 13.3116V14.0196C23.1672 14.0196 23.0181 14.7182 21.9748 14.7182V16.0317C21.9748 16.0317 23.102 16.1621 24.108 15.1561C24.108 15.1561 24.5738 14.6623 24.6763 14.0103V8.83096H23.1672ZM21.9469 12.5757C21.1923 12.5757 20.5868 11.9889 20.5868 11.2716C20.5868 10.5543 21.2016 9.96743 21.9469 9.96743C22.4778 9.96743 22.9436 10.2655 23.1672 10.694C23.2603 10.871 23.3069 11.0666 23.3069 11.2716C23.3069 11.4765 23.251 11.6814 23.1672 11.8491C22.9436 12.2869 22.4778 12.5757 21.9469 12.5757ZM9.93013 8.35586V7.00514C9.93013 7.00514 10.9176 6.87472 11.7932 7.90872C11.7932 7.90872 12.1938 8.41175 12.2869 9.08245V9.11971V13.8891H10.7499V9.11971C10.6195 8.44901 9.93013 8.35586 9.93013 8.35586Z" fill="#8E684C"/>
</svg>
