<?xml version="1.0" encoding="utf-8"?>
<!-- Generator: Adobe Illustrator 27.4.0, SVG Export Plug-In . SVG Version: 6.00 Build 0)  -->
<svg version="1.1" id="Layer_1" xmlns="http://www.w3.org/2000/svg" xmlns:xlink="http://www.w3.org/1999/xlink" x="0px" y="0px"
	 viewBox="0 0 307.2 306.7" style="enable-background:new 0 0 307.2 306.7;" xml:space="preserve">
<style type="text/css">
	.st0{fill:#b29f91;}
</style>
<g>
	<path class="st0" d="M301.1,291.2c-2.8-2.4-5.8-4.8-8.6-7.3c-51.6-46.2-85.4-103.4-105.3-169.3c-1.5-5-3.3-6.5-8.5-6.5
		c-16.7,0-33.5,0-50.2,0c-5.3,0-7.1,1.4-8.6,6.5C104.1,168.3,78.1,216.4,40.6,258C30,269.9,17.7,280.3,6.1,291.2
		c-2.6,2.4-4.5,5-5.4,7.9c0,0.1,0.1,0.2,0.1,0.2c1,2.3,2.3,5.6,4.9,5.8c0.9,0.1,2.7-0.2,4.2-0.7c1.3-1.3,2.9-2.2,4.5-3.2
		c0.3-0.5,0.6-0.9,1-1.2C53.1,269,82.2,231,104.6,187.8c0.6-1.1,1.2-2.2,1.9-3.6c5.5,4,9.4,9.8,16.9,9.4c7.6-0.3,11.5-5.1,15-12
		c0.7,2.1,1.2,3.4,1.5,4.7c2.6,9.5,5.1,19,7.8,28.5c1.6,5.6,5.3,8.8,10.3,8.6c5.1-0.1,8.6-3.5,9.9-9.5c1.1-5,2.1-10,3.2-15
		c0-0.1,0.1-0.2,0.6-0.6c0.7,1.2,1.4,2.3,2,3.4c5.8,9.9,17.8,10.1,24,0.3c2.1-3.4,4.2-6.8,6.5-10.7c0.9,1.5,1.5,2.6,2.1,3.7
		c21.6,39.6,48.9,74.5,83.5,103.5c0.8,0.4,1.5,1.1,2.1,1.8c0.2,0.2,0.3,0.4,0.5,0.6c0,0.1,0.1,0.1,0.2,0.1c0,0,0,0,0,0c0,0,0,0,0,0
		c0.4,0.2,0.7,0.5,1.1,0.8c0.6,0.5,1.2,1,1.8,1.6c0.3,0.3,0.5,0.5,0.8,0.8c0,0,0,0,0,0c0,0,0.1,0,0.2,0.1c0.6,0.4,1.2,0.8,1.8,1.3
		c0,0,0.1,0,0.1,0.1c0.3,0.2,0.6,0.3,0.9,0.4c2,0.4,3.9,0.5,5.7,0c0.9-0.6,1.6-1.2,2-2C307.5,299.4,305.4,295,301.1,291.2z
		 M195.9,180.6c-3.3,5.1-6.4,10.4-10,16.4c-4-7.1-7.6-13.3-11-19.6c-1.6-2.9-3.7-4.7-7.2-4.1c-3.5,0.5-4.9,3.1-5.5,6.2
		c-1.3,6.2-2.6,12.4-3.9,18.6c-0.1,0.5-0.3,1.1-1.2,1.6c-1.4-4.8-2.7-9.7-4.1-14.5c-1.8-6.7-3.7-13.4-5.5-20.2
		c-0.9-3.2-2.2-5.9-6-6.3c-3.5-0.4-5.5,1.7-7.1,4.5c-2.9,5.2-6.1,10.3-9,15.5c-1.2,2.1-2.4,2.6-4.3,0.8c-2.7-2.5-6.9-4.3-7.8-7.2
		c-0.8-2.7,2-6.5,3.2-9.8c4.7-12.7,9.4-25.4,13.9-38.2c0.9-2.6,2-3.4,4.7-3.4c12.4,0.2,24.7,0.1,37.1,0c2.5,0,3.6,0.6,4.5,3.1
		c6.4,17,12.9,33.9,19.6,50.8C197.1,177,197.2,178.6,195.9,180.6z"/>
	<path class="st0" d="M185.7,57.6c0-14.2,11.2-25.5,25.3-25.6c14.3-0.1,25.8,11.4,25.8,25.6c0,14-11.5,25.4-25.6,25.4
		C197,83,185.7,71.7,185.7,57.6z M211.1,70.2c7,0,12.9-5.8,12.9-12.8c0-6.8-5.7-12.6-12.6-12.7c-7.1-0.1-12.9,5.5-12.9,12.6
		C198.4,64.5,204,70.2,211.1,70.2z"/>
	<path class="st0" d="M166.1,90.1c-1.8-1.7-4-3.1-5.1-5.1c-1.5-2.6-0.4-5.3,1.9-6.9c4.1-2.7,8.5-5.2,12.9-7.4c2.6-1.3,5.6-0.5,6.9,2
		c1,1.9,1.2,4.7,0.7,6.8C182.8,82.1,169.6,89.5,166.1,90.1z"/>
	<path class="st0" d="M184.3,37.2c-0.1,5.6-4.7,8.8-8.7,6.9c-4.4-2.1-8.6-4.6-12.6-7.2c-2.9-1.9-3.3-5.5-1.6-8.3
		c1.7-2.7,5.1-4,8.1-2.4c4.1,2.1,8.1,4.3,11.9,6.9C183,34.2,183.7,36.4,184.3,37.2z"/>
	<path class="st0" d="M243.3,69.7c2.1,0.7,3.2,0.8,4.2,1.4c3.7,2.1,7.4,4.1,11,6.4c3.3,2.1,4.2,5.7,2.5,8.7c-1.7,3-5.4,4.1-8.8,2.3
		c-3.9-2-7.6-4.3-11.3-6.6c-2.7-1.7-3.7-4.5-2.4-7.2C239.5,72.7,241.8,71.2,243.3,69.7z"/>
	<path class="st0" d="M244.5,46c-2.4-2.2-4.8-3.5-5.9-5.5c-1.3-2.4-0.7-5.4,1.8-7c4.2-2.7,8.5-5.2,12.9-7.4c2.6-1.3,5.2-0.3,7,1.9
		c1.8,2.2,2.5,5.5,0.4,7.2C255.9,39,250.4,42.1,244.5,46z"/>
	<path class="st0" d="M217.4,102.7c0,2.1,0.1,4.2,0,6.3c-0.2,3.5-2.4,5.4-5.7,5.9c-3,0.4-6.3-1.7-6.5-4.8
		c-0.4-5.2-0.5-10.4-0.1-15.6c0.3-3.4,3.5-5.3,6.9-4.9c3.5,0.5,5.3,2.6,5.5,6C217.6,98,217.4,100.3,217.4,102.7
		C217.4,102.7,217.4,102.7,217.4,102.7z"/>
	<path class="st0" d="M217.4,12.8c0,2.2,0.1,4.5,0,6.7c-0.2,3.4-2.5,5.6-5.6,5.9c-3.4,0.3-6.5-1.6-6.7-5c-0.4-5.1-0.4-10.2,0-15.3
		c0.2-3.2,3.4-5.3,6.4-5.1c3.2,0.2,5.7,2.6,6,6.1C217.6,8.3,217.4,10.6,217.4,12.8z"/>
</g>
</svg>
