<?xml version="1.0" encoding="utf-8"?>
<!-- Generator: Adobe Illustrator 27.4.0, SVG Export Plug-In . SVG Version: 6.00 Build 0)  -->
<svg version="1.1" id="Layer_1" xmlns="http://www.w3.org/2000/svg" xmlns:xlink="http://www.w3.org/1999/xlink" x="0px" y="0px"
	 viewBox="0 0 800 420" style="enable-background:new 0 0 800 420;" xml:space="preserve">
<style type="text/css">
	.st0{fill:none;stroke:#b2b2b2;stroke-width:2;stroke-linecap:round;stroke-linejoin:round;stroke-miterlimit:10;}
</style>
<g>
	<path class="st0" d="M742.9,97.7c7.9,2.8,20,5.7,17.9-6.2c-1.6-9.1-5.6-10.6-9.4-17.2c-1.9-3.3-1.5-8.5-5.1-9.9
		c-1.2-0.5-2.5-0.4-3.8-0.1c-7.3,1.7-12.6,9.1-12.4,16.6C730.4,88.3,735.8,95.2,742.9,97.7z"/>
	<path class="st0" d="M120.6,361.6c-1.4-0.1-6.1-9.3-1.8-12.5s8.5,1.6,13.1,2.2c2.3,0.3,5.2-1.1,6.8,0.6c0.6,0.6,0.8,1.4,0.9,2.2
		c0.8,4.6-3.7,12.9-8,14.5C127.4,370,125.1,361.9,120.6,361.6z"/>
	<path class="st0" d="M602.2,13c-14.9-0.1-43.2,5.9-58.1,6.5c-17.9,0.7-58-2.9-78.4,4.2c-11.7,4-40.3,4.8-59.7,7.4
		s-37.4,10.3-65.9,10.3s-56.2,17.7-67.1,16.8c-5.9-0.5-18.6,3.6-31.4,7.7c-16.3,5.3-36.2-4.3-50.3,5.5c-6.7,4.6-10.5,12.8-17.6,16.9
		c-6,3.4-13.4-1.6-19.8,0.9c-9.8,3.9-18.6,15.7-25,24.1c-3.1,4.1-3.7,18.7-7.2,22.4c-12,13-26.1,16.1-41.6,24.6
		c-8,4.5-34.4,18.1-39.5,25.7c-4.7,7.1,3.2,21.2,2.6,29.7c-1,13.5,11.2,17.6,11.6,28.4c0.2,6.8-5,6,0.1,12.8c5.2,6.8,16,6.7,24.8,13
		c3.6,2.6,13.8,5.2,15.1,16.8s12.9,9,19.4,16.8c6.5,7.7,10.5,21.3,13.9,20.9c10.9-1.2,5.7-5.9,10.6-15.8
		c7.3-14.8,38.3-28.2,50.4-16.8c3.1,2.9,25.6,2.7,29.3,4.7c12.6,6.9,21.1-6,46.9-6s26.3,17.6,63,19.4c26.1,1.3,51-4.9,60.9-5.1
		c19-0.5,16.8,3.8,37.4,0.6c20.7-3.2,13.6-9,26.5-12.9c12.9-3.9,21,1.4,27.8-3.2c6.5-4.4,2.3-5.2,5.2-5.2c9,0,11.6,7.7,11.6,7.7
		s1.6,0.6,11.6,0c5.6-0.3,9.9-6,15.5-10.3c5.8-4.5,2,3.3,7.7,3.9c8.9,0.8,11.6,1.3,24.5-5.2c12.9-6.5,10.3-16.8,19.4-20.7
		c9-3.9,16.8-5.2,23.2-2.6c6.5,2.6,12.9,1.3,25.8-1.3c12.9-2.6,11.2-13.7,15.5-15.5c19.8-8.4,23-26.6,38.7-41.3
		c13.1-12.2,19.4-10.3,25.8-25.8c0.6-5.6,8.9-28,9-33.6c0.2-8.8,12.9-3.9,15.5-14.2c0-6.5-14.2-1.3-13-9.4c6.8-15.1-7-23.1-7.6-22.9
		c0,0,16.8-19.4,2.6-33.6c-14.2-14.2-26.2-5.1-36.2-6.5c-13.9-1.9-19.7-12.3-28.4-22C637.9,20.6,619.4,13.1,602.2,13z"/>
	<path class="st0" d="M133.5,402.7c0,0-0.6-11.2-3.8-11c0,0-2.2-0.2-4.6,4.3c-2.3,4.5-0.6,6,0.7,8.9s3.5,3.1,3.5,3.1
		S133.9,408.3,133.5,402.7"/>
</g>
</svg>
