<?xml version="1.0" encoding="utf-8"?>
<!-- Generator: Adobe Illustrator 27.4.0, SVG Export Plug-In . SVG Version: 6.00 Build 0)  -->
<svg version="1.1" id="Layer_1" xmlns="http://www.w3.org/2000/svg" xmlns:xlink="http://www.w3.org/1999/xlink" x="0px" y="0px"
	 viewBox="0 0 1200 100" style="enable-background:new 0 0 1200 100;" xml:space="preserve">
<style type="text/css">
	.st0{fill:#8E684C;}
	.st1{fill:#FFFFFF;}
</style>
<g>
	<rect y="47.5" class="st0" width="1200" height="5"/>
</g>
<g>
	<g>
		<circle class="st1" cx="182" cy="50" r="12.5"/>
		<path class="st0" d="M182,40c5.52,0,10,4.48,10,10s-4.48,10-10,10s-10-4.48-10-10S176.48,40,182,40 M182,35c-8.27,0-15,6.73-15,15
			s6.73,15,15,15s15-6.73,15-15S190.27,35,182,35L182,35z"/>
	</g>
	<g>
		<circle class="st1" cx="460.67" cy="50" r="12.5"/>
		<path class="st0" d="M460.67,40c5.52,0,10,4.48,10,10s-4.48,10-10,10c-5.52,0-10-4.48-10-10S455.14,40,460.67,40 M460.67,35
			c-8.27,0-15,6.73-15,15s6.73,15,15,15s15-6.73,15-15S468.94,35,460.67,35L460.67,35z"/>
	</g>
	<g>
		<circle class="st1" cx="739.33" cy="50" r="12.5"/>
		<path class="st0" d="M739.33,40c5.52,0,10,4.48,10,10s-4.48,10-10,10c-5.52,0-10-4.48-10-10S733.81,40,739.33,40 M739.33,35
			c-8.27,0-15,6.73-15,15s6.73,15,15,15s15-6.73,15-15S747.6,35,739.33,35L739.33,35z"/>
	</g>
	<g>
		<circle class="st1" cx="1018" cy="50" r="12.5"/>
		<path class="st0" d="M1018,40c5.52,0,10,4.48,10,10s-4.48,10-10,10s-10-4.48-10-10S1012.48,40,1018,40 M1018,35
			c-8.27,0-15,6.73-15,15s6.73,15,15,15c8.27,0,15-6.73,15-15S1026.27,35,1018,35L1018,35z"/>
	</g>
</g>
</svg>
