<svg width="26" height="26" viewBox="0 0 26 26" fill="none" xmlns="http://www.w3.org/2000/svg">
<g clip-path="url(#clip0_1904_80)">
<path d="M13 2.34299C16.4732 2.34299 16.8809 2.35848 18.2537 2.42041C19.5232 2.47717 20.2096 2.68877 20.6689 2.86939C21.2779 3.10679 21.7114 3.38547 22.1656 3.83962C22.6197 4.29377 22.9036 4.72727 23.1358 5.33624C23.3113 5.79555 23.528 6.48194 23.5848 7.75149C23.6467 9.12426 23.6622 9.53196 23.6622 13.0052C23.6622 16.4784 23.6467 16.8861 23.5848 18.2588C23.528 19.5284 23.3164 20.2148 23.1358 20.6741C22.8984 21.2831 22.6197 21.7166 22.1656 22.1707C21.7114 22.6249 21.2779 22.9087 20.6689 23.1409C20.2096 23.3164 19.5232 23.5331 18.2537 23.5899C16.8809 23.6518 16.4732 23.6673 13 23.6673C9.52681 23.6673 9.1191 23.6518 7.74634 23.5899C6.47678 23.5331 5.7904 23.3216 5.33109 23.1409C4.72212 22.9035 4.28861 22.6249 3.83446 22.1707C3.38031 21.7166 3.09647 21.2831 2.86423 20.6741C2.68877 20.2148 2.47202 19.5284 2.41525 18.2588C2.35332 16.8861 2.33783 16.4784 2.33783 13.0052C2.33783 9.53196 2.35332 9.12426 2.41525 7.75149C2.47202 6.48194 2.68361 5.79555 2.86423 5.33624C3.10163 4.72727 3.38031 4.29377 3.83446 3.83962C4.28861 3.38547 4.72212 3.10163 5.33109 2.86939C5.7904 2.69393 6.47678 2.47717 7.74634 2.42041C9.1191 2.35332 9.53197 2.34299 13 2.34299ZM13 0C9.47004 0 9.02621 0.0154823 7.63796 0.0774117C6.25487 0.139341 5.31045 0.361254 4.48472 0.681223C3.62803 1.01151 2.90552 1.4605 2.18301 2.18301C1.4605 2.90552 1.01667 3.63319 0.681223 4.48472C0.361255 5.31044 0.139341 6.25486 0.0774117 7.64311C0.0154823 9.0262 0 9.47003 0 13C0 16.53 0.0154823 16.9738 0.0774117 18.362C0.139341 19.7451 0.361255 20.6896 0.681223 21.5204C1.01151 22.3771 1.4605 23.0996 2.18301 23.8222C2.90552 24.5447 3.63319 24.9885 4.48472 25.3239C5.31045 25.6439 6.25487 25.8658 7.64312 25.9278C9.03137 25.9897 9.47004 26.0052 13.0052 26.0052C16.5403 26.0052 16.979 25.9897 18.3672 25.9278C19.7503 25.8658 20.6947 25.6439 21.5256 25.3239C22.3823 24.9937 23.1048 24.5447 23.8273 23.8222C24.5498 23.0996 24.9937 22.372 25.3291 21.5204C25.6491 20.6947 25.871 19.7503 25.9329 18.362C25.9949 16.9738 26.0103 16.5351 26.0103 13C26.0103 9.46487 25.9949 9.0262 25.9329 7.63795C25.871 6.25486 25.6491 5.31044 25.3291 4.47956C24.9988 3.62287 24.5498 2.90036 23.8273 2.17785C23.1048 1.45534 22.3772 1.01151 21.5256 0.676062C20.6999 0.356094 19.7555 0.13418 18.3672 0.0722509C16.9738 0.0154823 16.53 0 13 0Z" fill="#8E684C"/>
<path d="M12.9999 6.32703C9.31515 6.32703 6.3219 9.31512 6.3219 13.0051C6.3219 16.695 9.30999 19.6831 12.9999 19.6831C16.6899 19.6831 19.678 16.695 19.678 13.0051C19.678 9.31512 16.6899 6.32703 12.9999 6.32703ZM12.9999 17.335C10.6053 17.335 8.66489 15.3945 8.66489 12.9999C8.66489 10.6053 10.6053 8.66486 12.9999 8.66486C15.3945 8.66486 17.335 10.6053 17.335 12.9999C17.335 15.3945 15.3945 17.335 12.9999 17.335Z" fill="#8E684C"/>
<path d="M19.941 7.61735C20.8018 7.61735 21.4996 6.91957 21.4996 6.0588C21.4996 5.19803 20.8018 4.50024 19.941 4.50024C19.0802 4.50024 18.3824 5.19803 18.3824 6.0588C18.3824 6.91957 19.0802 7.61735 19.941 7.61735Z" fill="#8E684C"/>
</g>
<defs>
<clipPath id="clip0_1904_80">
<rect width="26" height="26" fill="white"/>
</clipPath>
</defs>
</svg>
